<svg width="12" height="12" viewBox="0 0 12 12" fill="none" xmlns="http://www.w3.org/2000/svg">
<path d="M11.7396 5.46159C11.9758 5.2314 12.0592 4.89356 11.9573 4.5795C11.8552 4.26545 11.5892 4.04126 11.2624 3.99369L8.35684 3.57151C8.23309 3.55348 8.12617 3.47587 8.0709 3.36366L6.77192 0.73109C6.62606 0.435299 6.33003 0.25148 6.00012 0.25148C5.67045 0.25148 5.37442 0.435299 5.22856 0.73109L3.92934 3.3639C3.87407 3.47611 3.76691 3.55372 3.64316 3.57175L0.737627 3.99393C0.411079 4.04126 0.144842 4.26569 0.042721 4.57974C-0.0591601 4.8938 0.024219 5.23164 0.26042 5.46183L2.36268 7.51099C2.4523 7.59845 2.49339 7.72436 2.47225 7.84739L1.9763 10.7409C1.93233 10.9956 1.99913 11.2433 2.16396 11.4387C2.42011 11.7431 2.86728 11.8359 3.22482 11.648L5.82327 10.2817C5.93188 10.2248 6.0686 10.2253 6.17697 10.2817L8.77566 11.648C8.90205 11.7145 9.03685 11.7482 9.17597 11.7482C9.42996 11.7482 9.67072 11.6352 9.83628 11.4387C10.0014 11.2433 10.0679 10.9951 10.0239 10.7409L9.52775 7.84739C9.50661 7.72412 9.5477 7.59845 9.63732 7.51099L11.7396 5.46159Z" fill="#9D2929"/>
</svg>
