<svg width="12" height="12" viewBox="0 0 12 12" fill="none" xmlns="http://www.w3.org/2000/svg">
<path d="M11.7396 5.46194C11.9758 5.23174 12.0592 4.89389 11.9573 4.57983C11.8552 4.26577 11.5892 4.04158 11.2624 3.994L8.35677 3.57181C8.23302 3.55379 8.12609 3.47618 8.07082 3.36396L6.77181 0.7311C6.62596 0.435302 6.32992 0.25148 6 0.25148C5.67032 0.25148 5.37428 0.435302 5.22843 0.7311L3.92918 3.36396C3.87391 3.47618 3.76674 3.55379 3.64299 3.57181L0.737401 3.99424C0.410847 4.04158 0.144845 4.26577 0.0427218 4.57983C-0.0591613 4.89389 0.0242195 5.23174 0.260425 5.46194L2.36272 7.51113C2.45235 7.5986 2.49344 7.72451 2.4723 7.84754L1.9761 10.7414C1.92035 11.0665 2.05131 11.3887 2.31827 11.5829C2.58499 11.7772 2.93221 11.8025 3.22465 11.6485L5.82315 10.2822C5.93392 10.224 6.06608 10.224 6.17685 10.2822L8.77559 11.6485C8.90247 11.7153 9.03991 11.7482 9.17664 11.7482C9.35421 11.7482 9.53107 11.6927 9.68197 11.5829C9.94893 11.3887 10.0799 11.0665 10.0241 10.7414L9.5277 7.84778C9.50656 7.72451 9.54765 7.59884 9.63727 7.51137L11.7396 5.46194ZM9.05433 7.929L9.55053 10.8226C9.57552 10.9682 9.51905 11.1073 9.39939 11.1943C9.27948 11.281 9.13026 11.2916 8.9993 11.2234L6.40056 9.85685C6.27537 9.79125 6.13745 9.75809 6 9.75809C5.86255 9.75809 5.72487 9.79125 5.59944 9.85709L3.00118 11.2234C2.86974 11.2916 2.72052 11.281 2.60085 11.1943C2.48119 11.1073 2.42496 10.9684 2.44971 10.8226L2.94591 7.929C2.99373 7.64978 2.90122 7.36479 2.69841 7.16728L0.59587 5.11784C0.489902 5.01451 0.453859 4.8689 0.499754 4.72833C0.545409 4.58752 0.660028 4.49092 0.806364 4.46954L3.71171 4.04735C3.99213 4.00674 4.23459 3.83084 4.35978 3.57662L5.65903 0.943757C5.72439 0.811116 5.85198 0.732061 5.99976 0.732061C6.14778 0.732061 6.27513 0.811116 6.34073 0.943757L7.63998 3.57662C7.76517 3.83084 8.00739 4.00674 8.2878 4.04735L11.1934 4.46954C11.3397 4.49092 11.4544 4.58752 11.5 4.72833C11.5457 4.8689 11.5099 5.01451 11.4039 5.11784L9.30159 7.16704C9.09878 7.36479 9.00627 7.64954 9.05433 7.929Z" fill="#9D2929"/>
</svg>
